<svg width="31" height="31" viewBox="0 0 31 31" fill="none" xmlns="http://www.w3.org/2000/svg">
<rect width="31" height="31" rx="8" fill="#4D4D4D"/>
<path d="M7.83333 22.5V23.75C7.83333 24.1042 7.71088 24.401 7.46597 24.6406C7.22107 24.8802 6.91759 25 6.55556 25H5.27778C4.91574 25 4.61227 24.8802 4.36736 24.6406C4.12245 24.401 4 24.1042 4 23.75V13.75L6.68333 6.25C6.81111 5.875 7.04005 5.57292 7.37014 5.34375C7.70023 5.11458 8.06759 5 8.47222 5H22.5278C22.9324 5 23.2998 5.11458 23.6299 5.34375C23.96 5.57292 24.1889 5.875 24.3167 6.25L27 13.75V23.75C27 24.1042 26.8775 24.401 26.6326 24.6406C26.3877 24.8802 26.0843 25 25.7222 25H24.4444C24.0824 25 23.7789 24.8802 23.534 24.6406C23.2891 24.401 23.1667 24.1042 23.1667 23.75V22.5H7.83333ZM7.57778 11.25H23.4222L22.0806 7.5H8.91944L7.57778 11.25ZM9.75 18.75C10.2824 18.75 10.735 18.5677 11.1076 18.2031C11.4803 17.8385 11.6667 17.3958 11.6667 16.875C11.6667 16.3542 11.4803 15.9115 11.1076 15.5469C10.735 15.1823 10.2824 15 9.75 15C9.21759 15 8.76505 15.1823 8.39236 15.5469C8.01968 15.9115 7.83333 16.3542 7.83333 16.875C7.83333 17.3958 8.01968 17.8385 8.39236 18.2031C8.76505 18.5677 9.21759 18.75 9.75 18.75ZM21.25 18.75C21.7824 18.75 22.235 18.5677 22.6076 18.2031C22.9803 17.8385 23.1667 17.3958 23.1667 16.875C23.1667 16.3542 22.9803 15.9115 22.6076 15.5469C22.235 15.1823 21.7824 15 21.25 15C20.7176 15 20.265 15.1823 19.8924 15.5469C19.5197 15.9115 19.3333 16.3542 19.3333 16.875C19.3333 17.3958 19.5197 17.8385 19.8924 18.2031C20.265 18.5677 20.7176 18.75 21.25 18.75ZM6.55556 20H24.4444V13.75H6.55556V20Z" fill="white"/>
</svg>
